<mxfile host="app.diagrams.net" modified="2022-01-25T08:27:04.962Z" agent="5.0 (Macintosh; Intel Mac OS X 10_15_7) AppleWebKit/537.36 (KHTML, like Gecko) Chrome/97.0.4692.99 Safari/537.36" etag="YHmllau3DgVw6qg8Ve0p" version="16.2.7" type="github" pages="4">
  <diagram id="fbmDc2c7skFAKWhuch0W" name="内部广告位">
    <mxGraphModel dx="1426" dy="794" grid="1" gridSize="10" guides="1" tooltips="1" connect="1" arrows="1" fold="1" page="1" pageScale="1" pageWidth="1100" pageHeight="850" background="#ffffff" math="0" shadow="0">
      <root>
        <mxCell id="0" />
        <mxCell id="1" parent="0" />
        <mxCell id="KhVVJyNDleV4a3jd2X6U-8" value="" style="rounded=1;whiteSpace=wrap;html=1;fillColor=#dae8fc;strokeColor=#6c8ebf;" parent="1" vertex="1">
          <mxGeometry x="110" y="120" width="160" height="320" as="geometry" />
        </mxCell>
        <mxCell id="KhVVJyNDleV4a3jd2X6U-19" style="edgeStyle=orthogonalEdgeStyle;rounded=0;orthogonalLoop=1;jettySize=auto;html=1;exitX=1;exitY=0.5;exitDx=0;exitDy=0;" parent="1" source="KhVVJyNDleV4a3jd2X6U-14" target="KhVVJyNDleV4a3jd2X6U-18" edge="1">
          <mxGeometry relative="1" as="geometry" />
        </mxCell>
        <mxCell id="KhVVJyNDleV4a3jd2X6U-21" style="edgeStyle=orthogonalEdgeStyle;rounded=0;orthogonalLoop=1;jettySize=auto;html=1;exitX=1;exitY=0.75;exitDx=0;exitDy=0;entryX=0;entryY=0.5;entryDx=0;entryDy=0;" parent="1" source="KhVVJyNDleV4a3jd2X6U-14" target="KhVVJyNDleV4a3jd2X6U-20" edge="1">
          <mxGeometry relative="1" as="geometry" />
        </mxCell>
        <mxCell id="KhVVJyNDleV4a3jd2X6U-14" value="" style="rounded=1;whiteSpace=wrap;html=1;fillColor=#dae8fc;strokeColor=#6c8ebf;" parent="1" vertex="1">
          <mxGeometry x="500" y="185" width="160" height="190" as="geometry" />
        </mxCell>
        <mxCell id="KhVVJyNDleV4a3jd2X6U-1" value="Banner" style="rounded=1;whiteSpace=wrap;html=1;" parent="1" vertex="1">
          <mxGeometry x="130" y="150" width="120" height="60" as="geometry" />
        </mxCell>
        <mxCell id="KhVVJyNDleV4a3jd2X6U-17" style="edgeStyle=orthogonalEdgeStyle;rounded=0;orthogonalLoop=1;jettySize=auto;html=1;exitX=1;exitY=0.5;exitDx=0;exitDy=0;" parent="1" source="KhVVJyNDleV4a3jd2X6U-11" target="KhVVJyNDleV4a3jd2X6U-14" edge="1">
          <mxGeometry relative="1" as="geometry" />
        </mxCell>
        <mxCell id="KhVVJyNDleV4a3jd2X6U-11" value="生成 Click ID" style="rounded=1;whiteSpace=wrap;html=1;" parent="1" vertex="1">
          <mxGeometry x="330" y="250" width="120" height="60" as="geometry" />
        </mxCell>
        <mxCell id="KhVVJyNDleV4a3jd2X6U-12" value="利用上报 Page Type等信息生成 dp_inner_source" style="rounded=1;whiteSpace=wrap;html=1;" parent="1" vertex="1">
          <mxGeometry x="520" y="230" width="120" height="60" as="geometry" />
        </mxCell>
        <mxCell id="KhVVJyNDleV4a3jd2X6U-18" value="完成本次 BI 上报" style="rounded=1;whiteSpace=wrap;html=1;" parent="1" vertex="1">
          <mxGeometry x="720" y="195" width="120" height="60" as="geometry" />
        </mxCell>
        <mxCell id="KhVVJyNDleV4a3jd2X6U-20" value="更新本地数据" style="rounded=1;whiteSpace=wrap;html=1;" parent="1" vertex="1">
          <mxGeometry x="720" y="350" width="120" height="60" as="geometry" />
        </mxCell>
        <mxCell id="KhVVJyNDleV4a3jd2X6U-13" value="利用上报 Click ID生成 dp_inner_source_id" style="rounded=1;whiteSpace=wrap;html=1;" parent="1" vertex="1">
          <mxGeometry x="520" y="300" width="120" height="60" as="geometry" />
        </mxCell>
        <mxCell id="KhVVJyNDleV4a3jd2X6U-2" value="You may also like" style="rounded=1;whiteSpace=wrap;html=1;" parent="1" vertex="1">
          <mxGeometry x="130" y="220" width="120" height="60" as="geometry" />
        </mxCell>
        <mxCell id="KhVVJyNDleV4a3jd2X6U-3" value="Quick Buy Card" style="rounded=1;whiteSpace=wrap;html=1;" parent="1" vertex="1">
          <mxGeometry x="130" y="360" width="120" height="60" as="geometry" />
        </mxCell>
        <mxCell id="KhVVJyNDleV4a3jd2X6U-4" value="From the Same Brand&amp;nbsp;" style="rounded=1;whiteSpace=wrap;html=1;" parent="1" vertex="1">
          <mxGeometry x="130" y="290" width="120" height="60" as="geometry" />
        </mxCell>
        <mxCell id="KhVVJyNDleV4a3jd2X6U-7" value="" style="endArrow=classic;html=1;rounded=0;" parent="1" source="KhVVJyNDleV4a3jd2X6U-8" target="KhVVJyNDleV4a3jd2X6U-11" edge="1">
          <mxGeometry width="50" height="50" relative="1" as="geometry">
            <mxPoint x="270" y="290" as="sourcePoint" />
            <mxPoint x="360" y="280" as="targetPoint" />
          </mxGeometry>
        </mxCell>
        <mxCell id="KhVVJyNDleV4a3jd2X6U-10" value="Click" style="edgeLabel;html=1;align=center;verticalAlign=middle;resizable=0;points=[];" parent="KhVVJyNDleV4a3jd2X6U-7" vertex="1" connectable="0">
          <mxGeometry x="-0.2557" y="2" relative="1" as="geometry">
            <mxPoint as="offset" />
          </mxGeometry>
        </mxCell>
        <mxCell id="KhVVJyNDleV4a3jd2X6U-9" value="内部广告位" style="text;html=1;align=center;verticalAlign=middle;resizable=0;points=[];autosize=1;strokeColor=none;fillColor=none;" parent="1" vertex="1">
          <mxGeometry x="150" y="120" width="80" height="20" as="geometry" />
        </mxCell>
        <mxCell id="KhVVJyNDleV4a3jd2X6U-15" value="全链路追踪&lt;br&gt;数据生成" style="text;html=1;align=center;verticalAlign=middle;resizable=0;points=[];autosize=1;strokeColor=none;fillColor=none;" parent="1" vertex="1">
          <mxGeometry x="540" y="195" width="80" height="30" as="geometry" />
        </mxCell>
      </root>
    </mxGraphModel>
  </diagram>
  <diagram id="LSwHidRuWhuqr8vERY7N" name="外部流量">
    <mxGraphModel dx="1298" dy="777" grid="1" gridSize="10" guides="1" tooltips="1" connect="1" arrows="1" fold="1" page="1" pageScale="1" pageWidth="1100" pageHeight="850" background="#ffffff" math="0" shadow="0">
      <root>
        <mxCell id="btaiyhGsmliu7VPQxBVR-0" />
        <mxCell id="btaiyhGsmliu7VPQxBVR-1" parent="btaiyhGsmliu7VPQxBVR-0" />
        <mxCell id="btaiyhGsmliu7VPQxBVR-16" value="" style="rounded=1;whiteSpace=wrap;html=1;fillColor=#ffe6cc;strokeColor=#d79b00;" vertex="1" parent="btaiyhGsmliu7VPQxBVR-1">
          <mxGeometry x="400" y="210" width="300" height="140" as="geometry" />
        </mxCell>
        <mxCell id="btaiyhGsmliu7VPQxBVR-10" style="edgeStyle=orthogonalEdgeStyle;rounded=0;orthogonalLoop=1;jettySize=auto;html=1;exitX=1;exitY=0.5;exitDx=0;exitDy=0;" edge="1" parent="btaiyhGsmliu7VPQxBVR-1" source="btaiyhGsmliu7VPQxBVR-2" target="btaiyhGsmliu7VPQxBVR-16">
          <mxGeometry relative="1" as="geometry">
            <mxPoint x="410" y="280" as="targetPoint" />
          </mxGeometry>
        </mxCell>
        <mxCell id="btaiyhGsmliu7VPQxBVR-11" value="Navigate&lt;br&gt;dp_from_source=xxx" style="edgeLabel;html=1;align=center;verticalAlign=middle;resizable=0;points=[];" vertex="1" connectable="0" parent="btaiyhGsmliu7VPQxBVR-10">
          <mxGeometry x="-0.2508" y="2" relative="1" as="geometry">
            <mxPoint x="9" y="2" as="offset" />
          </mxGeometry>
        </mxCell>
        <mxCell id="btaiyhGsmliu7VPQxBVR-2" value="" style="rounded=1;whiteSpace=wrap;html=1;fillColor=#f8cecc;strokeColor=#b85450;" vertex="1" parent="btaiyhGsmliu7VPQxBVR-1">
          <mxGeometry x="110" y="120" width="160" height="320" as="geometry" />
        </mxCell>
        <mxCell id="btaiyhGsmliu7VPQxBVR-3" value="Shopee Home Page" style="rounded=1;whiteSpace=wrap;html=1;" vertex="1" parent="btaiyhGsmliu7VPQxBVR-1">
          <mxGeometry x="130" y="150" width="120" height="60" as="geometry" />
        </mxCell>
        <mxCell id="btaiyhGsmliu7VPQxBVR-4" value="MP" style="rounded=1;whiteSpace=wrap;html=1;" vertex="1" parent="btaiyhGsmliu7VPQxBVR-1">
          <mxGeometry x="130" y="220" width="120" height="60" as="geometry" />
        </mxCell>
        <mxCell id="btaiyhGsmliu7VPQxBVR-15" style="edgeStyle=orthogonalEdgeStyle;rounded=0;orthogonalLoop=1;jettySize=auto;html=1;exitX=1;exitY=0.5;exitDx=0;exitDy=0;" edge="1" parent="btaiyhGsmliu7VPQxBVR-1" source="btaiyhGsmliu7VPQxBVR-12" target="btaiyhGsmliu7VPQxBVR-14">
          <mxGeometry relative="1" as="geometry" />
        </mxCell>
        <mxCell id="btaiyhGsmliu7VPQxBVR-12" value="dp_from_source 更新" style="rounded=1;whiteSpace=wrap;html=1;" vertex="1" parent="btaiyhGsmliu7VPQxBVR-1">
          <mxGeometry x="415" y="250" width="120" height="60" as="geometry" />
        </mxCell>
        <mxCell id="btaiyhGsmliu7VPQxBVR-14" value="埋点上报携带&lt;br&gt;dp_from_source" style="rounded=1;whiteSpace=wrap;html=1;" vertex="1" parent="btaiyhGsmliu7VPQxBVR-1">
          <mxGeometry x="565" y="250" width="120" height="60" as="geometry" />
        </mxCell>
        <mxCell id="btaiyhGsmliu7VPQxBVR-5" value="Quick Buy Card" style="rounded=1;whiteSpace=wrap;html=1;" vertex="1" parent="btaiyhGsmliu7VPQxBVR-1">
          <mxGeometry x="130" y="360" width="120" height="60" as="geometry" />
        </mxCell>
        <mxCell id="btaiyhGsmliu7VPQxBVR-6" value="Banner" style="rounded=1;whiteSpace=wrap;html=1;" vertex="1" parent="btaiyhGsmliu7VPQxBVR-1">
          <mxGeometry x="130" y="290" width="120" height="60" as="geometry" />
        </mxCell>
        <mxCell id="btaiyhGsmliu7VPQxBVR-8" value="外部流量来源" style="text;html=1;align=center;verticalAlign=middle;resizable=0;points=[];autosize=1;strokeColor=none;fillColor=none;" vertex="1" parent="btaiyhGsmliu7VPQxBVR-1">
          <mxGeometry x="145" y="120" width="90" height="20" as="geometry" />
        </mxCell>
        <mxCell id="btaiyhGsmliu7VPQxBVR-17" value="DP Pages" style="text;html=1;align=center;verticalAlign=middle;resizable=0;points=[];autosize=1;strokeColor=none;fillColor=none;" vertex="1" parent="btaiyhGsmliu7VPQxBVR-1">
          <mxGeometry x="515" y="210" width="70" height="20" as="geometry" />
        </mxCell>
      </root>
    </mxGraphModel>
  </diagram>
  <diagram id="Y4n4bwhq1imgFP3gE7db" name="内部广告位设计">
    <mxGraphModel dx="1442" dy="863" grid="1" gridSize="10" guides="1" tooltips="1" connect="1" arrows="1" fold="1" page="1" pageScale="1" pageWidth="1100" pageHeight="850" background="#ffffff" math="0" shadow="0">
      <root>
        <mxCell id="j8rizecdIicW49Dgr4ce-0" />
        <mxCell id="j8rizecdIicW49Dgr4ce-1" parent="j8rizecdIicW49Dgr4ce-0" />
        <mxCell id="j8rizecdIicW49Dgr4ce-39" style="edgeStyle=orthogonalEdgeStyle;rounded=0;orthogonalLoop=1;jettySize=auto;html=1;exitX=0.25;exitY=1;exitDx=0;exitDy=0;entryX=0.25;entryY=0;entryDx=0;entryDy=0;" edge="1" parent="j8rizecdIicW49Dgr4ce-1" source="j8rizecdIicW49Dgr4ce-34" target="j8rizecdIicW49Dgr4ce-36">
          <mxGeometry relative="1" as="geometry" />
        </mxCell>
        <mxCell id="j8rizecdIicW49Dgr4ce-34" value="H5&amp;nbsp;" style="rounded=1;whiteSpace=wrap;html=1;fillColor=#dae8fc;strokeColor=#6c8ebf;" vertex="1" parent="j8rizecdIicW49Dgr4ce-1">
          <mxGeometry x="180" y="170" width="120" height="30" as="geometry" />
        </mxCell>
        <mxCell id="j8rizecdIicW49Dgr4ce-40" style="edgeStyle=orthogonalEdgeStyle;rounded=0;orthogonalLoop=1;jettySize=auto;html=1;exitX=0.75;exitY=0;exitDx=0;exitDy=0;entryX=0.75;entryY=1;entryDx=0;entryDy=0;" edge="1" parent="j8rizecdIicW49Dgr4ce-1" source="j8rizecdIicW49Dgr4ce-36" target="j8rizecdIicW49Dgr4ce-34">
          <mxGeometry relative="1" as="geometry" />
        </mxCell>
        <mxCell id="j8rizecdIicW49Dgr4ce-41" style="edgeStyle=orthogonalEdgeStyle;rounded=0;orthogonalLoop=1;jettySize=auto;html=1;exitX=0.25;exitY=1;exitDx=0;exitDy=0;entryX=0.086;entryY=0;entryDx=0;entryDy=0;entryPerimeter=0;" edge="1" parent="j8rizecdIicW49Dgr4ce-1" source="j8rizecdIicW49Dgr4ce-36">
          <mxGeometry relative="1" as="geometry">
            <mxPoint x="210.0999999999999" y="340" as="targetPoint" />
          </mxGeometry>
        </mxCell>
        <mxCell id="j8rizecdIicW49Dgr4ce-36" value="Cache 缓存" style="rounded=1;whiteSpace=wrap;html=1;fillColor=#dae8fc;strokeColor=#6c8ebf;" vertex="1" parent="j8rizecdIicW49Dgr4ce-1">
          <mxGeometry x="180" y="240" width="120" height="60" as="geometry" />
        </mxCell>
        <mxCell id="j8rizecdIicW49Dgr4ce-38" value="Native Bridge &amp;gt; DataStore" style="rounded=1;whiteSpace=wrap;html=1;" vertex="1" parent="j8rizecdIicW49Dgr4ce-1">
          <mxGeometry x="180" y="340" width="350" height="60" as="geometry" />
        </mxCell>
        <mxCell id="j8rizecdIicW49Dgr4ce-42" style="edgeStyle=orthogonalEdgeStyle;rounded=0;orthogonalLoop=1;jettySize=auto;html=1;exitX=0.75;exitY=0;exitDx=0;exitDy=0;entryX=0.75;entryY=1;entryDx=0;entryDy=0;" edge="1" parent="j8rizecdIicW49Dgr4ce-1">
          <mxGeometry relative="1" as="geometry">
            <mxPoint x="270" y="340" as="sourcePoint" />
            <mxPoint x="270" y="300" as="targetPoint" />
            <Array as="points">
              <mxPoint x="270" y="320" />
              <mxPoint x="270" y="320" />
            </Array>
          </mxGeometry>
        </mxCell>
        <mxCell id="j8rizecdIicW49Dgr4ce-43" style="edgeStyle=orthogonalEdgeStyle;rounded=0;orthogonalLoop=1;jettySize=auto;html=1;exitX=0.25;exitY=1;exitDx=0;exitDy=0;entryX=0.25;entryY=0;entryDx=0;entryDy=0;" edge="1" parent="j8rizecdIicW49Dgr4ce-1" source="j8rizecdIicW49Dgr4ce-44" target="j8rizecdIicW49Dgr4ce-47">
          <mxGeometry relative="1" as="geometry" />
        </mxCell>
        <mxCell id="j8rizecdIicW49Dgr4ce-44" value="RN" style="rounded=1;whiteSpace=wrap;html=1;fillColor=#f8cecc;strokeColor=#b85450;" vertex="1" parent="j8rizecdIicW49Dgr4ce-1">
          <mxGeometry x="410" y="170" width="120" height="30" as="geometry" />
        </mxCell>
        <mxCell id="j8rizecdIicW49Dgr4ce-45" style="edgeStyle=orthogonalEdgeStyle;rounded=0;orthogonalLoop=1;jettySize=auto;html=1;exitX=0.75;exitY=0;exitDx=0;exitDy=0;entryX=0.75;entryY=1;entryDx=0;entryDy=0;" edge="1" parent="j8rizecdIicW49Dgr4ce-1" source="j8rizecdIicW49Dgr4ce-47" target="j8rizecdIicW49Dgr4ce-44">
          <mxGeometry relative="1" as="geometry" />
        </mxCell>
        <mxCell id="j8rizecdIicW49Dgr4ce-46" style="edgeStyle=orthogonalEdgeStyle;rounded=0;orthogonalLoop=1;jettySize=auto;html=1;exitX=0.25;exitY=1;exitDx=0;exitDy=0;entryX=0.086;entryY=0;entryDx=0;entryDy=0;entryPerimeter=0;" edge="1" parent="j8rizecdIicW49Dgr4ce-1" source="j8rizecdIicW49Dgr4ce-47">
          <mxGeometry relative="1" as="geometry">
            <mxPoint x="440.0999999999999" y="340" as="targetPoint" />
          </mxGeometry>
        </mxCell>
        <mxCell id="j8rizecdIicW49Dgr4ce-47" value="Cache 缓存" style="rounded=1;whiteSpace=wrap;html=1;fillColor=#f8cecc;strokeColor=#b85450;" vertex="1" parent="j8rizecdIicW49Dgr4ce-1">
          <mxGeometry x="410" y="240" width="120" height="60" as="geometry" />
        </mxCell>
        <mxCell id="j8rizecdIicW49Dgr4ce-48" style="edgeStyle=orthogonalEdgeStyle;rounded=0;orthogonalLoop=1;jettySize=auto;html=1;exitX=0.75;exitY=0;exitDx=0;exitDy=0;entryX=0.75;entryY=1;entryDx=0;entryDy=0;" edge="1" parent="j8rizecdIicW49Dgr4ce-1">
          <mxGeometry relative="1" as="geometry">
            <mxPoint x="500" y="340" as="sourcePoint" />
            <mxPoint x="500" y="300" as="targetPoint" />
            <Array as="points">
              <mxPoint x="500" y="320" />
              <mxPoint x="500" y="320" />
            </Array>
          </mxGeometry>
        </mxCell>
      </root>
    </mxGraphModel>
  </diagram>
  <diagram id="ssl1aLL-8SmBTCgFVkqc" name="Page-4">
    <mxGraphModel dx="2526" dy="794" grid="1" gridSize="10" guides="1" tooltips="1" connect="1" arrows="1" fold="1" page="1" pageScale="1" pageWidth="1100" pageHeight="850" background="#ffffff" math="0" shadow="0">
      <root>
        <mxCell id="YI-WfIiVWYNJUhHzP4Yg-0" />
        <mxCell id="YI-WfIiVWYNJUhHzP4Yg-1" parent="YI-WfIiVWYNJUhHzP4Yg-0" />
        <mxCell id="YI-WfIiVWYNJUhHzP4Yg-9" value="trackData()" style="shape=umlLifeline;perimeter=lifelinePerimeter;whiteSpace=wrap;html=1;container=1;collapsible=0;recursiveResize=0;outlineConnect=0;rounded=1;shadow=0;comic=0;labelBackgroundColor=none;strokeWidth=1;fontFamily=Verdana;fontSize=12;align=center;" vertex="1" parent="YI-WfIiVWYNJUhHzP4Yg-1">
          <mxGeometry x="460" y="70" width="100" height="890" as="geometry" />
        </mxCell>
        <mxCell id="YI-WfIiVWYNJUhHzP4Yg-76" value="" style="html=1;points=[];perimeter=orthogonalPerimeter;rounded=0;shadow=0;comic=0;labelBackgroundColor=none;strokeWidth=1;fontFamily=Verdana;fontSize=12;align=center;" vertex="1" parent="YI-WfIiVWYNJUhHzP4Yg-9">
          <mxGeometry x="45" y="200" width="10" height="80" as="geometry" />
        </mxCell>
        <mxCell id="YI-WfIiVWYNJUhHzP4Yg-77" value="Wrap Data" style="html=1;verticalAlign=bottom;endArrow=block;labelBackgroundColor=none;fontFamily=Verdana;fontSize=12;elbow=vertical;edgeStyle=orthogonalEdgeStyle;curved=1;rounded=0;" edge="1" parent="YI-WfIiVWYNJUhHzP4Yg-9">
          <mxGeometry x="-0.3683" relative="1" as="geometry">
            <mxPoint x="55" y="216" as="sourcePoint" />
            <mxPoint x="55" y="254" as="targetPoint" />
            <Array as="points">
              <mxPoint x="104.62" y="215.90000000000003" />
              <mxPoint x="104.62" y="253.90000000000003" />
            </Array>
            <mxPoint as="offset" />
          </mxGeometry>
        </mxCell>
        <mxCell id="YI-WfIiVWYNJUhHzP4Yg-4" value="Redux Store&lt;br&gt;(Cache)" style="shape=umlLifeline;perimeter=lifelinePerimeter;whiteSpace=wrap;html=1;container=1;collapsible=0;recursiveResize=0;outlineConnect=0;rounded=1;shadow=0;comic=0;labelBackgroundColor=none;strokeWidth=1;fontFamily=Verdana;fontSize=12;align=center;" vertex="1" parent="YI-WfIiVWYNJUhHzP4Yg-1">
          <mxGeometry x="180" y="70" width="100" height="890" as="geometry" />
        </mxCell>
        <mxCell id="YI-WfIiVWYNJUhHzP4Yg-5" value="" style="html=1;points=[];perimeter=orthogonalPerimeter;rounded=0;shadow=0;comic=0;labelBackgroundColor=none;strokeWidth=1;fontFamily=Verdana;fontSize=12;align=center;" vertex="1" parent="YI-WfIiVWYNJUhHzP4Yg-4">
          <mxGeometry x="45" y="160" width="10" height="400" as="geometry" />
        </mxCell>
        <mxCell id="YI-WfIiVWYNJUhHzP4Yg-65" value="load" style="html=1;verticalAlign=bottom;endArrow=block;entryX=0;entryY=0;labelBackgroundColor=none;fontFamily=Verdana;fontSize=12;edgeStyle=elbowEdgeStyle;elbow=vertical;rounded=0;" edge="1" parent="YI-WfIiVWYNJUhHzP4Yg-4">
          <mxGeometry relative="1" as="geometry">
            <mxPoint x="55" y="170" as="sourcePoint" />
            <mxPoint x="185" y="170" as="targetPoint" />
          </mxGeometry>
        </mxCell>
        <mxCell id="YI-WfIiVWYNJUhHzP4Yg-67" value="" style="html=1;points=[];perimeter=orthogonalPerimeter;rounded=0;shadow=0;comic=0;labelBackgroundColor=none;strokeWidth=1;fontFamily=Verdana;fontSize=12;align=center;" vertex="1" parent="YI-WfIiVWYNJUhHzP4Yg-4">
          <mxGeometry x="50" y="500" width="10" height="40" as="geometry" />
        </mxCell>
        <mxCell id="YI-WfIiVWYNJUhHzP4Yg-82" value="impression tracking" style="html=1;verticalAlign=bottom;endArrow=block;labelBackgroundColor=none;fontFamily=Verdana;fontSize=12;edgeStyle=elbowEdgeStyle;elbow=vertical;rounded=0;exitX=1;exitY=0.9;exitDx=0;exitDy=0;exitPerimeter=0;entryX=0;entryY=-0.012;entryDx=0;entryDy=0;entryPerimeter=0;" edge="1" parent="YI-WfIiVWYNJUhHzP4Yg-4" target="YI-WfIiVWYNJUhHzP4Yg-89">
          <mxGeometry x="-0.6543" y="-20" relative="1" as="geometry">
            <mxPoint x="-90" y="320" as="sourcePoint" />
            <mxPoint x="315" y="320" as="targetPoint" />
            <Array as="points">
              <mxPoint x="-20" y="320" />
              <mxPoint x="110" y="298" />
              <mxPoint x="-30" y="298" />
              <mxPoint y="328" />
            </Array>
            <mxPoint as="offset" />
          </mxGeometry>
        </mxCell>
        <mxCell id="YI-WfIiVWYNJUhHzP4Yg-102" value="" style="html=1;points=[];perimeter=orthogonalPerimeter;rounded=0;shadow=0;comic=0;labelBackgroundColor=none;strokeWidth=1;fontFamily=Verdana;fontSize=12;align=center;" vertex="1" parent="YI-WfIiVWYNJUhHzP4Yg-4">
          <mxGeometry x="45" y="654" width="10" height="40" as="geometry" />
        </mxCell>
        <mxCell id="YI-WfIiVWYNJUhHzP4Yg-107" value="Loop" style="shape=umlFrame;whiteSpace=wrap;html=1;" vertex="1" parent="YI-WfIiVWYNJUhHzP4Yg-4">
          <mxGeometry x="30" y="580" width="510" height="180" as="geometry" />
        </mxCell>
        <mxCell id="YI-WfIiVWYNJUhHzP4Yg-93" value="Ready" style="text;html=1;align=center;verticalAlign=middle;resizable=0;points=[];autosize=1;strokeColor=none;fillColor=none;" vertex="1" parent="YI-WfIiVWYNJUhHzP4Yg-4">
          <mxGeometry x="80" y="540" width="50" height="20" as="geometry" />
        </mxCell>
        <mxCell id="YI-WfIiVWYNJUhHzP4Yg-6" value="TrackBIEvent" style="shape=umlLifeline;perimeter=lifelinePerimeter;whiteSpace=wrap;html=1;container=1;collapsible=0;recursiveResize=0;outlineConnect=0;rounded=1;shadow=0;comic=0;labelBackgroundColor=none;strokeWidth=1;fontFamily=Verdana;fontSize=12;align=center;" vertex="1" parent="YI-WfIiVWYNJUhHzP4Yg-1">
          <mxGeometry x="600" y="70" width="100" height="860" as="geometry" />
        </mxCell>
        <mxCell id="YI-WfIiVWYNJUhHzP4Yg-79" value="" style="html=1;points=[];perimeter=orthogonalPerimeter;rounded=0;shadow=0;comic=0;labelBackgroundColor=none;strokeWidth=1;fontFamily=Verdana;fontSize=12;align=center;" vertex="1" parent="YI-WfIiVWYNJUhHzP4Yg-6">
          <mxGeometry x="45" y="280" width="10" height="50" as="geometry" />
        </mxCell>
        <mxCell id="YI-WfIiVWYNJUhHzP4Yg-78" value="call" style="html=1;verticalAlign=bottom;endArrow=block;entryX=0;entryY=0;labelBackgroundColor=none;fontFamily=Verdana;fontSize=12;edgeStyle=elbowEdgeStyle;elbow=vertical;rounded=0;" edge="1" parent="YI-WfIiVWYNJUhHzP4Yg-6">
          <mxGeometry relative="1" as="geometry">
            <mxPoint x="-85" y="280" as="sourcePoint" />
            <mxPoint x="45" y="280" as="targetPoint" />
          </mxGeometry>
        </mxCell>
        <mxCell id="YI-WfIiVWYNJUhHzP4Yg-85" value="" style="html=1;points=[];perimeter=orthogonalPerimeter;rounded=0;shadow=0;comic=0;labelBackgroundColor=none;strokeWidth=1;fontFamily=Verdana;fontSize=12;align=center;" vertex="1" parent="YI-WfIiVWYNJUhHzP4Yg-6">
          <mxGeometry x="45" y="400" width="10" height="50" as="geometry" />
        </mxCell>
        <mxCell id="YI-WfIiVWYNJUhHzP4Yg-86" value="call" style="html=1;verticalAlign=bottom;endArrow=block;entryX=0;entryY=0;labelBackgroundColor=none;fontFamily=Verdana;fontSize=12;edgeStyle=elbowEdgeStyle;elbow=vertical;rounded=0;" edge="1" parent="YI-WfIiVWYNJUhHzP4Yg-6">
          <mxGeometry relative="1" as="geometry">
            <mxPoint x="-85" y="400" as="sourcePoint" />
            <mxPoint x="45" y="400" as="targetPoint" />
          </mxGeometry>
        </mxCell>
        <mxCell id="YI-WfIiVWYNJUhHzP4Yg-89" value="" style="html=1;points=[];perimeter=orthogonalPerimeter;rounded=0;shadow=0;comic=0;labelBackgroundColor=none;strokeWidth=1;fontFamily=Verdana;fontSize=12;align=center;" vertex="1" parent="YI-WfIiVWYNJUhHzP4Yg-6">
          <mxGeometry x="-95" y="320" width="10" height="80" as="geometry" />
        </mxCell>
        <mxCell id="YI-WfIiVWYNJUhHzP4Yg-90" value="Wrap Data" style="html=1;verticalAlign=bottom;endArrow=block;labelBackgroundColor=none;fontFamily=Verdana;fontSize=12;elbow=vertical;edgeStyle=orthogonalEdgeStyle;curved=1;rounded=0;" edge="1" parent="YI-WfIiVWYNJUhHzP4Yg-6">
          <mxGeometry x="-0.3683" relative="1" as="geometry">
            <mxPoint x="-85" y="336" as="sourcePoint" />
            <mxPoint x="-85" y="374" as="targetPoint" />
            <Array as="points">
              <mxPoint x="-35.379999999999995" y="335.90000000000003" />
              <mxPoint x="-35.379999999999995" y="373.90000000000003" />
            </Array>
            <mxPoint as="offset" />
          </mxGeometry>
        </mxCell>
        <mxCell id="YI-WfIiVWYNJUhHzP4Yg-96" value="Push to Queue" style="html=1;verticalAlign=bottom;endArrow=block;labelBackgroundColor=none;fontFamily=Verdana;fontSize=12;elbow=vertical;edgeStyle=orthogonalEdgeStyle;curved=1;rounded=0;" edge="1" parent="YI-WfIiVWYNJUhHzP4Yg-6">
          <mxGeometry x="-0.3683" relative="1" as="geometry">
            <mxPoint x="55" y="281" as="sourcePoint" />
            <mxPoint x="55" y="319" as="targetPoint" />
            <Array as="points">
              <mxPoint x="104.62" y="280.90000000000003" />
              <mxPoint x="104.62" y="318.90000000000003" />
            </Array>
            <mxPoint as="offset" />
          </mxGeometry>
        </mxCell>
        <mxCell id="YI-WfIiVWYNJUhHzP4Yg-97" value="Push to Queue" style="html=1;verticalAlign=bottom;endArrow=block;labelBackgroundColor=none;fontFamily=Verdana;fontSize=12;elbow=vertical;edgeStyle=orthogonalEdgeStyle;curved=1;rounded=0;" edge="1" parent="YI-WfIiVWYNJUhHzP4Yg-6">
          <mxGeometry x="-0.3683" relative="1" as="geometry">
            <mxPoint x="55" y="402" as="sourcePoint" />
            <mxPoint x="55" y="440" as="targetPoint" />
            <Array as="points">
              <mxPoint x="104.62" y="401.90000000000003" />
              <mxPoint x="104.62" y="439.90000000000003" />
            </Array>
            <mxPoint as="offset" />
          </mxGeometry>
        </mxCell>
        <mxCell id="YI-WfIiVWYNJUhHzP4Yg-108" value="Report" style="html=1;verticalAlign=bottom;endArrow=block;labelBackgroundColor=none;fontFamily=Verdana;fontSize=12;elbow=vertical;edgeStyle=orthogonalEdgeStyle;curved=1;rounded=0;" edge="1" parent="YI-WfIiVWYNJUhHzP4Yg-6">
          <mxGeometry x="-0.4898" relative="1" as="geometry">
            <mxPoint x="55" y="700" as="sourcePoint" />
            <mxPoint x="55" y="738" as="targetPoint" />
            <Array as="points">
              <mxPoint x="104.62" y="699.9000000000001" />
              <mxPoint x="104.62" y="737.9000000000001" />
            </Array>
            <mxPoint as="offset" />
          </mxGeometry>
        </mxCell>
        <mxCell id="YI-WfIiVWYNJUhHzP4Yg-10" value="DP Page" style="shape=umlLifeline;perimeter=lifelinePerimeter;whiteSpace=wrap;html=1;container=1;collapsible=0;recursiveResize=0;outlineConnect=0;rounded=1;shadow=0;comic=0;labelBackgroundColor=none;strokeWidth=1;fontFamily=Verdana;fontSize=12;align=center;" vertex="1" parent="YI-WfIiVWYNJUhHzP4Yg-1">
          <mxGeometry x="40" y="70" width="100" height="890" as="geometry" />
        </mxCell>
        <mxCell id="YI-WfIiVWYNJUhHzP4Yg-11" value="" style="html=1;points=[];perimeter=orthogonalPerimeter;rounded=0;shadow=0;comic=0;labelBackgroundColor=none;strokeWidth=1;fontFamily=Verdana;fontSize=12;align=center;" vertex="1" parent="YI-WfIiVWYNJUhHzP4Yg-10">
          <mxGeometry x="45" y="90" width="10" height="290" as="geometry" />
        </mxCell>
        <mxCell id="YI-WfIiVWYNJUhHzP4Yg-55" value="" style="html=1;points=[];perimeter=orthogonalPerimeter;rounded=0;shadow=0;comic=0;labelBackgroundColor=none;strokeWidth=1;fontFamily=Verdana;fontSize=12;align=center;" vertex="1" parent="YI-WfIiVWYNJUhHzP4Yg-10">
          <mxGeometry x="50" y="130" width="10" height="80" as="geometry" />
        </mxCell>
        <mxCell id="YI-WfIiVWYNJUhHzP4Yg-56" value="Construction" style="html=1;verticalAlign=bottom;endArrow=block;labelBackgroundColor=none;fontFamily=Verdana;fontSize=12;elbow=vertical;edgeStyle=orthogonalEdgeStyle;curved=1;entryX=1;entryY=0.286;entryPerimeter=0;exitX=1.038;exitY=0.345;exitPerimeter=0;rounded=0;" edge="1" parent="YI-WfIiVWYNJUhHzP4Yg-10">
          <mxGeometry x="-0.3683" relative="1" as="geometry">
            <mxPoint x="55.000000000000114" y="109.99999999999991" as="sourcePoint" />
            <mxPoint x="59.620000000000005" y="147.92" as="targetPoint" />
            <Array as="points">
              <mxPoint x="109.62" y="109.9" />
              <mxPoint x="109.62" y="147.9" />
            </Array>
            <mxPoint as="offset" />
          </mxGeometry>
        </mxCell>
        <mxCell id="YI-WfIiVWYNJUhHzP4Yg-57" value="Initialize" style="html=1;verticalAlign=bottom;endArrow=block;labelBackgroundColor=none;fontFamily=Verdana;fontSize=12;edgeStyle=elbowEdgeStyle;elbow=vertical;rounded=0;entryX=0;entryY=0;entryDx=0;entryDy=0;entryPerimeter=0;" edge="1" parent="YI-WfIiVWYNJUhHzP4Yg-10" target="YI-WfIiVWYNJUhHzP4Yg-5">
          <mxGeometry relative="1" as="geometry">
            <mxPoint x="60" y="159.5" as="sourcePoint" />
            <mxPoint x="180" y="160" as="targetPoint" />
          </mxGeometry>
        </mxCell>
        <mxCell id="YI-WfIiVWYNJUhHzP4Yg-83" value="" style="html=1;points=[];perimeter=orthogonalPerimeter;rounded=0;shadow=0;comic=0;labelBackgroundColor=none;strokeWidth=1;fontFamily=Verdana;fontSize=12;align=center;" vertex="1" parent="YI-WfIiVWYNJUhHzP4Yg-10">
          <mxGeometry x="50" y="275" width="10" height="80" as="geometry" />
        </mxCell>
        <mxCell id="YI-WfIiVWYNJUhHzP4Yg-84" value="Mount" style="html=1;verticalAlign=bottom;endArrow=block;labelBackgroundColor=none;fontFamily=Verdana;fontSize=12;elbow=vertical;edgeStyle=orthogonalEdgeStyle;curved=1;entryX=1;entryY=0.286;entryPerimeter=0;exitX=1.038;exitY=0.345;exitPerimeter=0;rounded=0;" edge="1" parent="YI-WfIiVWYNJUhHzP4Yg-10">
          <mxGeometry x="-0.3683" relative="1" as="geometry">
            <mxPoint x="55" y="254.9999999999999" as="sourcePoint" />
            <mxPoint x="59.61999999999989" y="292.91999999999996" as="targetPoint" />
            <Array as="points">
              <mxPoint x="109.62" y="254.89999999999998" />
              <mxPoint x="109.62" y="292.9" />
            </Array>
            <mxPoint as="offset" />
          </mxGeometry>
        </mxCell>
        <mxCell id="YI-WfIiVWYNJUhHzP4Yg-113" value="" style="html=1;verticalAlign=bottom;endArrow=block;labelBackgroundColor=none;fontFamily=Verdana;fontSize=12;edgeStyle=elbowEdgeStyle;elbow=vertical;rounded=0;" edge="1" parent="YI-WfIiVWYNJUhHzP4Yg-10" target="YI-WfIiVWYNJUhHzP4Yg-116">
          <mxGeometry relative="1" as="geometry">
            <mxPoint x="-70" y="800" as="sourcePoint" />
            <mxPoint x="50" y="800" as="targetPoint" />
          </mxGeometry>
        </mxCell>
        <mxCell id="YI-WfIiVWYNJUhHzP4Yg-116" value="" style="html=1;points=[];perimeter=orthogonalPerimeter;rounded=0;shadow=0;comic=0;labelBackgroundColor=none;strokeWidth=1;fontFamily=Verdana;fontSize=12;align=center;" vertex="1" parent="YI-WfIiVWYNJUhHzP4Yg-10">
          <mxGeometry x="45" y="800" width="10" height="40" as="geometry" />
        </mxCell>
        <mxCell id="YI-WfIiVWYNJUhHzP4Yg-40" value="User" style="shape=umlActor;verticalLabelPosition=bottom;verticalAlign=top;html=1;outlineConnect=0;" vertex="1" parent="YI-WfIiVWYNJUhHzP4Yg-1">
          <mxGeometry x="-40" y="40" width="30" height="60" as="geometry" />
        </mxCell>
        <mxCell id="YI-WfIiVWYNJUhHzP4Yg-43" value="" style="endArrow=none;dashed=1;html=1;rounded=0;startArrow=none;" edge="1" parent="YI-WfIiVWYNJUhHzP4Yg-1" source="YI-WfIiVWYNJUhHzP4Yg-45">
          <mxGeometry width="50" height="50" relative="1" as="geometry">
            <mxPoint x="-25" y="630" as="sourcePoint" />
            <mxPoint x="-25" y="120" as="targetPoint" />
          </mxGeometry>
        </mxCell>
        <mxCell id="YI-WfIiVWYNJUhHzP4Yg-44" value="Enter" style="html=1;verticalAlign=bottom;endArrow=block;labelBackgroundColor=none;fontFamily=Verdana;fontSize=12;edgeStyle=elbowEdgeStyle;elbow=vertical;rounded=0;" edge="1" parent="YI-WfIiVWYNJUhHzP4Yg-1" source="YI-WfIiVWYNJUhHzP4Yg-45" target="YI-WfIiVWYNJUhHzP4Yg-11">
          <mxGeometry x="0.0036" relative="1" as="geometry">
            <mxPoint x="-30" y="170" as="sourcePoint" />
            <mxPoint x="80" y="150" as="targetPoint" />
            <Array as="points">
              <mxPoint x="-20" y="160" />
              <mxPoint x="-30" y="180" />
              <mxPoint x="-5" y="140" />
            </Array>
            <mxPoint as="offset" />
          </mxGeometry>
        </mxCell>
        <mxCell id="YI-WfIiVWYNJUhHzP4Yg-45" value="" style="html=1;points=[];perimeter=orthogonalPerimeter;rounded=0;shadow=0;comic=0;labelBackgroundColor=none;strokeWidth=1;fontFamily=Verdana;fontSize=12;align=center;" vertex="1" parent="YI-WfIiVWYNJUhHzP4Yg-1">
          <mxGeometry x="-30" y="150" width="10" height="50" as="geometry" />
        </mxCell>
        <mxCell id="YI-WfIiVWYNJUhHzP4Yg-46" value="" style="endArrow=none;dashed=1;html=1;rounded=0;startArrow=none;" edge="1" parent="YI-WfIiVWYNJUhHzP4Yg-1" source="YI-WfIiVWYNJUhHzP4Yg-109" target="YI-WfIiVWYNJUhHzP4Yg-45">
          <mxGeometry width="50" height="50" relative="1" as="geometry">
            <mxPoint x="-25" y="930" as="sourcePoint" />
            <mxPoint x="-25" y="120" as="targetPoint" />
          </mxGeometry>
        </mxCell>
        <mxCell id="YI-WfIiVWYNJUhHzP4Yg-54" value="Data Store&lt;br&gt;(Disk)" style="shape=umlLifeline;perimeter=lifelinePerimeter;whiteSpace=wrap;html=1;container=1;collapsible=0;recursiveResize=0;outlineConnect=0;rounded=1;shadow=0;comic=0;labelBackgroundColor=none;strokeWidth=1;fontFamily=Verdana;fontSize=12;align=center;" vertex="1" parent="YI-WfIiVWYNJUhHzP4Yg-1">
          <mxGeometry x="320" y="70" width="100" height="890" as="geometry" />
        </mxCell>
        <mxCell id="YI-WfIiVWYNJUhHzP4Yg-64" value="" style="html=1;points=[];perimeter=orthogonalPerimeter;rounded=0;shadow=0;comic=0;labelBackgroundColor=none;strokeWidth=1;fontFamily=Verdana;fontSize=12;align=center;" vertex="1" parent="YI-WfIiVWYNJUhHzP4Yg-54">
          <mxGeometry x="45" y="170" width="10" height="280" as="geometry" />
        </mxCell>
        <mxCell id="YI-WfIiVWYNJUhHzP4Yg-66" value="return" style="html=1;verticalAlign=bottom;endArrow=open;dashed=1;endSize=8;labelBackgroundColor=none;fontFamily=Verdana;fontSize=12;edgeStyle=elbowEdgeStyle;elbow=vertical;rounded=0;" edge="1" parent="YI-WfIiVWYNJUhHzP4Yg-54">
          <mxGeometry relative="1" as="geometry">
            <mxPoint x="-85" y="449" as="targetPoint" />
            <Array as="points">
              <mxPoint x="-10" y="449" />
              <mxPoint x="20" y="449" />
            </Array>
            <mxPoint x="45" y="449" as="sourcePoint" />
          </mxGeometry>
        </mxCell>
        <mxCell id="YI-WfIiVWYNJUhHzP4Yg-68" value="Update" style="html=1;verticalAlign=bottom;endArrow=block;labelBackgroundColor=none;fontFamily=Verdana;fontSize=12;elbow=vertical;edgeStyle=orthogonalEdgeStyle;curved=1;entryX=1;entryY=0.286;entryPerimeter=0;exitX=1.038;exitY=0.345;exitPerimeter=0;rounded=0;" edge="1" parent="YI-WfIiVWYNJUhHzP4Yg-1">
          <mxGeometry x="-0.3683" relative="1" as="geometry">
            <mxPoint x="235" y="560" as="sourcePoint" />
            <mxPoint x="239.6199999999999" y="597.9200000000001" as="targetPoint" />
            <Array as="points">
              <mxPoint x="289.62" y="559.9000000000001" />
              <mxPoint x="289.62" y="597.9000000000001" />
            </Array>
            <mxPoint as="offset" />
          </mxGeometry>
        </mxCell>
        <mxCell id="YI-WfIiVWYNJUhHzP4Yg-74" value="page pv tracking" style="html=1;verticalAlign=bottom;endArrow=block;labelBackgroundColor=none;fontFamily=Verdana;fontSize=12;edgeStyle=elbowEdgeStyle;elbow=vertical;rounded=0;exitX=1;exitY=0.9;exitDx=0;exitDy=0;exitPerimeter=0;" edge="1" parent="YI-WfIiVWYNJUhHzP4Yg-1" source="YI-WfIiVWYNJUhHzP4Yg-55" target="YI-WfIiVWYNJUhHzP4Yg-76">
          <mxGeometry x="-0.6904" y="-20" relative="1" as="geometry">
            <mxPoint x="100" y="260" as="sourcePoint" />
            <mxPoint x="460" y="272" as="targetPoint" />
            <Array as="points">
              <mxPoint x="170" y="272" />
              <mxPoint x="300" y="250" />
              <mxPoint x="160" y="250" />
              <mxPoint x="190" y="280" />
            </Array>
            <mxPoint as="offset" />
          </mxGeometry>
        </mxCell>
        <mxCell id="YI-WfIiVWYNJUhHzP4Yg-92" value="" style="html=1;verticalAlign=bottom;endArrow=block;labelBackgroundColor=none;fontFamily=Verdana;fontSize=12;edgeStyle=elbowEdgeStyle;elbow=vertical;rounded=0;" edge="1" parent="YI-WfIiVWYNJUhHzP4Yg-1" source="YI-WfIiVWYNJUhHzP4Yg-5" target="YI-WfIiVWYNJUhHzP4Yg-94">
          <mxGeometry x="-0.7541" y="-20" relative="1" as="geometry">
            <mxPoint x="234" y="662" as="sourcePoint" />
            <mxPoint x="650" y="660" as="targetPoint" />
            <Array as="points">
              <mxPoint x="540" y="630" />
              <mxPoint x="290" y="660" />
              <mxPoint x="310" y="640.96" />
              <mxPoint x="440" y="618.96" />
              <mxPoint x="300" y="618.96" />
              <mxPoint x="330" y="648.96" />
            </Array>
            <mxPoint as="offset" />
          </mxGeometry>
        </mxCell>
        <mxCell id="YI-WfIiVWYNJUhHzP4Yg-94" value="" style="html=1;points=[];perimeter=orthogonalPerimeter;rounded=0;shadow=0;comic=0;labelBackgroundColor=none;strokeWidth=1;fontFamily=Verdana;fontSize=12;align=center;" vertex="1" parent="YI-WfIiVWYNJUhHzP4Yg-1">
          <mxGeometry x="645" y="660" width="10" height="160" as="geometry" />
        </mxCell>
        <mxCell id="YI-WfIiVWYNJUhHzP4Yg-98" value="Get Data From Queue" style="html=1;verticalAlign=bottom;endArrow=block;labelBackgroundColor=none;fontFamily=Verdana;fontSize=12;elbow=vertical;edgeStyle=orthogonalEdgeStyle;curved=1;rounded=0;" edge="1" parent="YI-WfIiVWYNJUhHzP4Yg-1">
          <mxGeometry x="-0.277" y="35" relative="1" as="geometry">
            <mxPoint x="655" y="670" as="sourcePoint" />
            <mxPoint x="655" y="708" as="targetPoint" />
            <Array as="points">
              <mxPoint x="704.62" y="669.9000000000001" />
              <mxPoint x="704.62" y="707.9000000000001" />
            </Array>
            <mxPoint as="offset" />
          </mxGeometry>
        </mxCell>
        <mxCell id="YI-WfIiVWYNJUhHzP4Yg-100" value="" style="html=1;verticalAlign=bottom;endArrow=block;labelBackgroundColor=none;fontFamily=Verdana;fontSize=12;edgeStyle=elbowEdgeStyle;elbow=vertical;rounded=0;exitX=0;exitY=0.567;exitDx=0;exitDy=0;exitPerimeter=0;" edge="1" parent="YI-WfIiVWYNJUhHzP4Yg-1" target="YI-WfIiVWYNJUhHzP4Yg-102">
          <mxGeometry x="-0.7541" y="-20" relative="1" as="geometry">
            <mxPoint x="645" y="719.05" as="sourcePoint" />
            <mxPoint x="190" y="684" as="targetPoint" />
            <Array as="points">
              <mxPoint x="600" y="724" />
              <mxPoint x="266" y="704.96" />
              <mxPoint x="396" y="682.96" />
              <mxPoint x="256" y="682.96" />
              <mxPoint x="286" y="712.96" />
            </Array>
            <mxPoint as="offset" />
          </mxGeometry>
        </mxCell>
        <mxCell id="YI-WfIiVWYNJUhHzP4Yg-103" value="" style="html=1;verticalAlign=bottom;endArrow=block;labelBackgroundColor=none;fontFamily=Verdana;fontSize=12;edgeStyle=elbowEdgeStyle;elbow=vertical;rounded=0;exitX=0.9;exitY=1.005;exitDx=0;exitDy=0;exitPerimeter=0;dashed=1;" edge="1" parent="YI-WfIiVWYNJUhHzP4Yg-1">
          <mxGeometry x="-0.7541" y="-20" relative="1" as="geometry">
            <mxPoint x="234" y="766" as="sourcePoint" />
            <mxPoint x="645" y="764" as="targetPoint" />
            <Array as="points">
              <mxPoint x="290" y="764" />
              <mxPoint x="310" y="744.96" />
              <mxPoint x="440" y="722.96" />
              <mxPoint x="300" y="722.96" />
              <mxPoint x="330" y="752.96" />
            </Array>
            <mxPoint as="offset" />
          </mxGeometry>
        </mxCell>
        <mxCell id="YI-WfIiVWYNJUhHzP4Yg-104" value="Return" style="text;html=1;align=center;verticalAlign=middle;resizable=0;points=[];autosize=1;strokeColor=none;fillColor=none;" vertex="1" parent="YI-WfIiVWYNJUhHzP4Yg-1">
          <mxGeometry x="560" y="744" width="50" height="20" as="geometry" />
        </mxCell>
        <mxCell id="YI-WfIiVWYNJUhHzP4Yg-105" value="Read" style="text;html=1;align=center;verticalAlign=middle;resizable=0;points=[];autosize=1;strokeColor=none;fillColor=none;" vertex="1" parent="YI-WfIiVWYNJUhHzP4Yg-1">
          <mxGeometry x="570" y="704" width="40" height="20" as="geometry" />
        </mxCell>
        <mxCell id="YI-WfIiVWYNJUhHzP4Yg-109" value="" style="html=1;points=[];perimeter=orthogonalPerimeter;rounded=0;shadow=0;comic=0;labelBackgroundColor=none;strokeWidth=1;fontFamily=Verdana;fontSize=12;align=center;" vertex="1" parent="YI-WfIiVWYNJUhHzP4Yg-1">
          <mxGeometry x="-30" y="850" width="10" height="50" as="geometry" />
        </mxCell>
        <mxCell id="YI-WfIiVWYNJUhHzP4Yg-110" value="" style="endArrow=none;dashed=1;html=1;rounded=0;startArrow=none;" edge="1" parent="YI-WfIiVWYNJUhHzP4Yg-1" target="YI-WfIiVWYNJUhHzP4Yg-109">
          <mxGeometry width="50" height="50" relative="1" as="geometry">
            <mxPoint x="-25" y="960" as="sourcePoint" />
            <mxPoint x="-25" y="200" as="targetPoint" />
          </mxGeometry>
        </mxCell>
        <mxCell id="YI-WfIiVWYNJUhHzP4Yg-112" value="Click Item" style="text;html=1;align=center;verticalAlign=middle;resizable=0;points=[];autosize=1;strokeColor=none;fillColor=none;" vertex="1" parent="YI-WfIiVWYNJUhHzP4Yg-1">
          <mxGeometry x="-5" y="850" width="70" height="20" as="geometry" />
        </mxCell>
        <mxCell id="YI-WfIiVWYNJUhHzP4Yg-118" value="" style="html=1;points=[];perimeter=orthogonalPerimeter;rounded=0;shadow=0;comic=0;labelBackgroundColor=none;strokeWidth=1;fontFamily=Verdana;fontSize=12;align=center;" vertex="1" parent="YI-WfIiVWYNJUhHzP4Yg-1">
          <mxGeometry x="505" y="890" width="10" height="40" as="geometry" />
        </mxCell>
        <mxCell id="YI-WfIiVWYNJUhHzP4Yg-117" value="click tracking" style="html=1;verticalAlign=bottom;endArrow=block;labelBackgroundColor=none;fontFamily=Verdana;fontSize=12;edgeStyle=elbowEdgeStyle;elbow=vertical;rounded=0;" edge="1" parent="YI-WfIiVWYNJUhHzP4Yg-1" source="YI-WfIiVWYNJUhHzP4Yg-116" target="YI-WfIiVWYNJUhHzP4Yg-118">
          <mxGeometry x="-0.6543" y="-20" relative="1" as="geometry">
            <mxPoint x="90" y="890.96" as="sourcePoint" />
            <mxPoint x="505" y="890" as="targetPoint" />
            <Array as="points">
              <mxPoint x="160" y="890.96" />
              <mxPoint x="290" y="868.96" />
              <mxPoint x="150" y="868.96" />
              <mxPoint x="180" y="898.96" />
            </Array>
            <mxPoint as="offset" />
          </mxGeometry>
        </mxCell>
        <mxCell id="YI-WfIiVWYNJUhHzP4Yg-119" value="" style="html=1;points=[];perimeter=orthogonalPerimeter;rounded=0;shadow=0;comic=0;labelBackgroundColor=none;strokeWidth=1;fontFamily=Verdana;fontSize=12;align=center;" vertex="1" parent="YI-WfIiVWYNJUhHzP4Yg-1">
          <mxGeometry x="645" y="910" width="10" height="50" as="geometry" />
        </mxCell>
        <mxCell id="YI-WfIiVWYNJUhHzP4Yg-120" value="Report" style="html=1;verticalAlign=bottom;endArrow=block;labelBackgroundColor=none;fontFamily=Verdana;fontSize=12;elbow=vertical;edgeStyle=orthogonalEdgeStyle;curved=1;rounded=0;" edge="1" parent="YI-WfIiVWYNJUhHzP4Yg-1">
          <mxGeometry x="-0.3683" relative="1" as="geometry">
            <mxPoint x="655" y="916" as="sourcePoint" />
            <mxPoint x="655" y="954" as="targetPoint" />
            <Array as="points">
              <mxPoint x="704.62" y="915.9000000000001" />
              <mxPoint x="704.62" y="953.9000000000001" />
            </Array>
            <mxPoint as="offset" />
          </mxGeometry>
        </mxCell>
        <mxCell id="YI-WfIiVWYNJUhHzP4Yg-121" value="" style="html=1;verticalAlign=bottom;endArrow=block;labelBackgroundColor=none;fontFamily=Verdana;fontSize=12;edgeStyle=elbowEdgeStyle;elbow=vertical;rounded=0;" edge="1" parent="YI-WfIiVWYNJUhHzP4Yg-1" source="YI-WfIiVWYNJUhHzP4Yg-118" target="YI-WfIiVWYNJUhHzP4Yg-119">
          <mxGeometry relative="1" as="geometry">
            <mxPoint x="520" y="920" as="sourcePoint" />
            <mxPoint x="635" y="920" as="targetPoint" />
            <Array as="points">
              <mxPoint x="570" y="910" />
            </Array>
          </mxGeometry>
        </mxCell>
        <mxCell id="YI-WfIiVWYNJUhHzP4Yg-123" value="&lt;meta charset=&quot;utf-8&quot;&gt;&lt;span style=&quot;color: rgb(0, 0, 0); font-family: verdana; font-size: 12px; font-style: normal; font-weight: 400; letter-spacing: normal; text-align: center; text-indent: 0px; text-transform: none; word-spacing: 0px; background-color: rgb(248, 249, 250); display: inline; float: none;&quot;&gt;call&lt;/span&gt;" style="text;whiteSpace=wrap;html=1;" vertex="1" parent="YI-WfIiVWYNJUhHzP4Yg-1">
          <mxGeometry x="560" y="880" width="50" height="30" as="geometry" />
        </mxCell>
      </root>
    </mxGraphModel>
  </diagram>
</mxfile>
